<?xml version="1.0" encoding="us-ascii" standalone="no"?><svg xmlns="http://www.w3.org/2000/svg" xmlns:xlink="http://www.w3.org/1999/xlink" contentStyleType="text/css" height="522px" preserveAspectRatio="none" style="width:2173px;height:522px;background:#FFFFFF;" version="1.1" viewBox="0 0 2173 522" width="2173px" zoomAndPan="magnify"><defs/><g><!--cluster Approach 1--><g id="cluster_Approach 1"><rect fill="none" height="217.47" rx="2.5" ry="2.5" style="stroke:#181818;stroke-width:1.0;" width="286" x="7" y="96.23"/><text fill="#000000" font-family="sans-serif" font-size="14" font-weight="bold" lengthAdjust="spacing" textLength="81" x="109.5" y="111.7652">Approach 1</text></g><!--cluster Approach 2--><g id="cluster_Approach 2"><rect fill="none" height="217.47" rx="2.5" ry="2.5" style="stroke:#181818;stroke-width:1.0;" width="286" x="317" y="96.23"/><text fill="#000000" font-family="sans-serif" font-size="14" font-weight="bold" lengthAdjust="spacing" textLength="81" x="419.5" y="111.7652">Approach 2</text></g><!--cluster Approach 3--><g id="cluster_Approach 3"><rect fill="none" height="217.47" rx="2.5" ry="2.5" style="stroke:#181818;stroke-width:1.0;" width="286" x="627" y="96.23"/><text fill="#000000" font-family="sans-serif" font-size="14" font-weight="bold" lengthAdjust="spacing" textLength="81" x="729.5" y="111.7652">Approach 3</text></g><!--cluster Approach 4--><g id="cluster_Approach 4"><rect fill="none" height="217.47" rx="2.5" ry="2.5" style="stroke:#181818;stroke-width:1.0;" width="286" x="937" y="96.23"/><text fill="#000000" font-family="sans-serif" font-size="14" font-weight="bold" lengthAdjust="spacing" textLength="81" x="1039.5" y="111.7652">Approach 4</text></g><!--cluster Approach 5--><g id="cluster_Approach 5"><rect fill="none" height="217.47" rx="2.5" ry="2.5" style="stroke:#181818;stroke-width:1.0;" width="286" x="1247" y="96.23"/><text fill="#000000" font-family="sans-serif" font-size="14" font-weight="bold" lengthAdjust="spacing" textLength="81" x="1349.5" y="111.7652">Approach 5</text></g><!--cluster Approach 6--><g id="cluster_Approach 6"><rect fill="none" height="217.47" rx="2.5" ry="2.5" style="stroke:#181818;stroke-width:1.0;" width="286" x="1557" y="96.23"/><text fill="#000000" font-family="sans-serif" font-size="14" font-weight="bold" lengthAdjust="spacing" textLength="81" x="1659.5" y="111.7652">Approach 6</text></g><!--cluster General Snowball--><g id="cluster_General Snowball"><rect fill="none" height="217.47" rx="2.5" ry="2.5" style="stroke:#181818;stroke-width:1.0;" width="300" x="1867" y="96.23"/><text fill="#000000" font-family="sans-serif" font-size="14" font-weight="bold" lengthAdjust="spacing" textLength="124" x="1955" y="111.7652">General Snowball</text></g><!--entity st_ap1--><g id="elem_st_ap1"><polygon fill="#F1F1F1" points="23,131.23,267,131.23,277,149.4742,267,167.7183,23,167.7183" style="stroke:#181818;stroke-width:0.5;"/><text fill="#000000" font-family="sans-serif" font-size="14" lengthAdjust="spacing" textLength="140" x="33" y="154.7652">Snowball Key Papers</text><a href="https://github.com/IPBES-Data/IPBES_TCA_Ch3_clusters/raw/DMR_final/input/key_papers/c1_key-paper.csv" target="_top" title="https://github.com/IPBES-Data/IPBES_TCA_Ch3_clusters/raw/DMR_final/input/key_papers/c1_key-paper.csv" xlink:actuate="onRequest" xlink:href="https://github.com/IPBES-Data/IPBES_TCA_Ch3_clusters/raw/DMR_final/input/key_papers/c1_key-paper.csv" xlink:show="new" xlink:title="https://github.com/IPBES-Data/IPBES_TCA_Ch3_clusters/raw/DMR_final/input/key_papers/c1_key-paper.csv" xlink:type="simple"><text fill="#0000FF" font-family="sans-serif" font-size="14" lengthAdjust="spacing" text-decoration="underline" textLength="80" x="177" y="154.7652">Approach 1</text></a></g><!--entity cp_ap1--><g id="elem_cp_ap1"><path d="M51,237.72 C51,227.72 159,227.72 159,227.72 C159,227.72 267,227.72 267,237.72 L267,287.6966 C267,297.6966 159,297.6966 159,297.6966 C159,297.6966 51,297.6966 51,287.6966 L51,237.72 " fill="#F1F1F1" style="stroke:#181818;stroke-width:0.5;"/><path d="M51,237.72 C51,247.72 159,247.72 159,247.72 C159,247.72 267,247.72 267,237.72 " fill="none" style="stroke:#181818;stroke-width:0.5;"/><text fill="#000000" font-family="sans-serif" font-size="14" lengthAdjust="spacing" textLength="196" x="61" y="265.2552">Approach 1 snowball corpus</text><path d="M51,263.2083 C51,273.2083 159,273.2083 159,273.2083 C159,273.2083 267,273.2083 267,263.2083 " fill="none" style="stroke:#181818;stroke-width:1.0;"/><text fill="#000000" font-family="sans-serif" font-size="14" lengthAdjust="spacing" textLength="4" x="61" y="285.7435">&#160;</text></g><!--entity st_ap2--><g id="elem_st_ap2"><polygon fill="#F1F1F1" points="333,131.23,577,131.23,587,149.4742,577,167.7183,333,167.7183" style="stroke:#181818;stroke-width:0.5;"/><text fill="#000000" font-family="sans-serif" font-size="14" lengthAdjust="spacing" textLength="140" x="343" y="154.7652">Snowball Key Papers</text><a href="https://github.com/IPBES-Data/IPBES_TCA_Ch3_clusters/raw/DMR_final/input/key_papers/c2_key-paper.csv" target="_top" title="https://github.com/IPBES-Data/IPBES_TCA_Ch3_clusters/raw/DMR_final/input/key_papers/c2_key-paper.csv" xlink:actuate="onRequest" xlink:href="https://github.com/IPBES-Data/IPBES_TCA_Ch3_clusters/raw/DMR_final/input/key_papers/c2_key-paper.csv" xlink:show="new" xlink:title="https://github.com/IPBES-Data/IPBES_TCA_Ch3_clusters/raw/DMR_final/input/key_papers/c2_key-paper.csv" xlink:type="simple"><text fill="#0000FF" font-family="sans-serif" font-size="14" lengthAdjust="spacing" text-decoration="underline" textLength="80" x="487" y="154.7652">Approach 2</text></a></g><!--entity cp_ap2--><g id="elem_cp_ap2"><path d="M361,237.72 C361,227.72 469,227.72 469,227.72 C469,227.72 577,227.72 577,237.72 L577,287.6966 C577,297.6966 469,297.6966 469,297.6966 C469,297.6966 361,297.6966 361,287.6966 L361,237.72 " fill="#F1F1F1" style="stroke:#181818;stroke-width:0.5;"/><path d="M361,237.72 C361,247.72 469,247.72 469,247.72 C469,247.72 577,247.72 577,237.72 " fill="none" style="stroke:#181818;stroke-width:0.5;"/><text fill="#000000" font-family="sans-serif" font-size="14" lengthAdjust="spacing" textLength="196" x="371" y="265.2552">Approach 1 snowball corpus</text><path d="M361,263.2083 C361,273.2083 469,273.2083 469,273.2083 C469,273.2083 577,273.2083 577,263.2083 " fill="none" style="stroke:#181818;stroke-width:1.0;"/><text fill="#000000" font-family="sans-serif" font-size="14" lengthAdjust="spacing" textLength="4" x="371" y="285.7435">&#160;</text></g><!--entity st_ap3--><g id="elem_st_ap3"><polygon fill="#F1F1F1" points="643,131.23,887,131.23,897,149.4742,887,167.7183,643,167.7183" style="stroke:#181818;stroke-width:0.5;"/><text fill="#000000" font-family="sans-serif" font-size="14" lengthAdjust="spacing" textLength="140" x="653" y="154.7652">Snowball Key Papers</text><a href="https://github.com/IPBES-Data/IPBES_TCA_Ch3_clusters/raw/DMR_final/input/key_papers/c3_key-paper.csv" target="_top" title="https://github.com/IPBES-Data/IPBES_TCA_Ch3_clusters/raw/DMR_final/input/key_papers/c3_key-paper.csv" xlink:actuate="onRequest" xlink:href="https://github.com/IPBES-Data/IPBES_TCA_Ch3_clusters/raw/DMR_final/input/key_papers/c3_key-paper.csv" xlink:show="new" xlink:title="https://github.com/IPBES-Data/IPBES_TCA_Ch3_clusters/raw/DMR_final/input/key_papers/c3_key-paper.csv" xlink:type="simple"><text fill="#0000FF" font-family="sans-serif" font-size="14" lengthAdjust="spacing" text-decoration="underline" textLength="80" x="797" y="154.7652">Approach 3</text></a></g><!--entity cp_ap3--><g id="elem_cp_ap3"><path d="M671,237.72 C671,227.72 779,227.72 779,227.72 C779,227.72 887,227.72 887,237.72 L887,287.6966 C887,297.6966 779,297.6966 779,297.6966 C779,297.6966 671,297.6966 671,287.6966 L671,237.72 " fill="#F1F1F1" style="stroke:#181818;stroke-width:0.5;"/><path d="M671,237.72 C671,247.72 779,247.72 779,247.72 C779,247.72 887,247.72 887,237.72 " fill="none" style="stroke:#181818;stroke-width:0.5;"/><text fill="#000000" font-family="sans-serif" font-size="14" lengthAdjust="spacing" textLength="196" x="681" y="265.2552">Approach 1 snowball corpus</text><path d="M671,263.2083 C671,273.2083 779,273.2083 779,273.2083 C779,273.2083 887,273.2083 887,263.2083 " fill="none" style="stroke:#181818;stroke-width:1.0;"/><text fill="#000000" font-family="sans-serif" font-size="14" lengthAdjust="spacing" textLength="4" x="681" y="285.7435">&#160;</text></g><!--entity st_ap4--><g id="elem_st_ap4"><polygon fill="#F1F1F1" points="953,131.23,1197,131.23,1207,149.4742,1197,167.7183,953,167.7183" style="stroke:#181818;stroke-width:0.5;"/><text fill="#000000" font-family="sans-serif" font-size="14" lengthAdjust="spacing" textLength="140" x="963" y="154.7652">Snowball Key Papers</text><a href="https://github.com/IPBES-Data/IPBES_TCA_Ch3_clusters/raw/DMR_final/input/key_papers/c4_key-paper.csv" target="_top" title="https://github.com/IPBES-Data/IPBES_TCA_Ch3_clusters/raw/DMR_final/input/key_papers/c4_key-paper.csv" xlink:actuate="onRequest" xlink:href="https://github.com/IPBES-Data/IPBES_TCA_Ch3_clusters/raw/DMR_final/input/key_papers/c4_key-paper.csv" xlink:show="new" xlink:title="https://github.com/IPBES-Data/IPBES_TCA_Ch3_clusters/raw/DMR_final/input/key_papers/c4_key-paper.csv" xlink:type="simple"><text fill="#0000FF" font-family="sans-serif" font-size="14" lengthAdjust="spacing" text-decoration="underline" textLength="80" x="1107" y="154.7652">Approach 4</text></a></g><!--entity cp_ap4--><g id="elem_cp_ap4"><path d="M962,237.72 C962,227.72 1070,227.72 1070,227.72 C1070,227.72 1178,227.72 1178,237.72 L1178,287.6966 C1178,297.6966 1070,297.6966 1070,297.6966 C1070,297.6966 962,297.6966 962,287.6966 L962,237.72 " fill="#F1F1F1" style="stroke:#181818;stroke-width:0.5;"/><path d="M962,237.72 C962,247.72 1070,247.72 1070,247.72 C1070,247.72 1178,247.72 1178,237.72 " fill="none" style="stroke:#181818;stroke-width:0.5;"/><text fill="#000000" font-family="sans-serif" font-size="14" lengthAdjust="spacing" textLength="196" x="972" y="265.2552">Approach 4 snowball corpus</text><path d="M962,263.2083 C962,273.2083 1070,273.2083 1070,273.2083 C1070,273.2083 1178,273.2083 1178,263.2083 " fill="none" style="stroke:#181818;stroke-width:1.0;"/><text fill="#000000" font-family="sans-serif" font-size="14" lengthAdjust="spacing" textLength="4" x="972" y="285.7435">&#160;</text></g><!--entity st_ap5--><g id="elem_st_ap5"><polygon fill="#F1F1F1" points="1263,131.23,1507,131.23,1517,149.4742,1507,167.7183,1263,167.7183" style="stroke:#181818;stroke-width:0.5;"/><text fill="#000000" font-family="sans-serif" font-size="14" lengthAdjust="spacing" textLength="140" x="1273" y="154.7652">Snowball Key Papers</text><a href="https://github.com/IPBES-Data/IPBES_TCA_Ch3_clusters/raw/DMR_final/input/key_papers/c5_key-paper.csv" target="_top" title="https://github.com/IPBES-Data/IPBES_TCA_Ch3_clusters/raw/DMR_final/input/key_papers/c5_key-paper.csv" xlink:actuate="onRequest" xlink:href="https://github.com/IPBES-Data/IPBES_TCA_Ch3_clusters/raw/DMR_final/input/key_papers/c5_key-paper.csv" xlink:show="new" xlink:title="https://github.com/IPBES-Data/IPBES_TCA_Ch3_clusters/raw/DMR_final/input/key_papers/c5_key-paper.csv" xlink:type="simple"><text fill="#0000FF" font-family="sans-serif" font-size="14" lengthAdjust="spacing" text-decoration="underline" textLength="80" x="1417" y="154.7652">Approach 5</text></a></g><!--entity cp_ap5--><g id="elem_cp_ap5"><path d="M1272,237.72 C1272,227.72 1380,227.72 1380,227.72 C1380,227.72 1488,227.72 1488,237.72 L1488,287.6966 C1488,297.6966 1380,297.6966 1380,297.6966 C1380,297.6966 1272,297.6966 1272,287.6966 L1272,237.72 " fill="#F1F1F1" style="stroke:#181818;stroke-width:0.5;"/><path d="M1272,237.72 C1272,247.72 1380,247.72 1380,247.72 C1380,247.72 1488,247.72 1488,237.72 " fill="none" style="stroke:#181818;stroke-width:0.5;"/><text fill="#000000" font-family="sans-serif" font-size="14" lengthAdjust="spacing" textLength="196" x="1282" y="265.2552">Approach 5 snowball corpus</text><path d="M1272,263.2083 C1272,273.2083 1380,273.2083 1380,273.2083 C1380,273.2083 1488,273.2083 1488,263.2083 " fill="none" style="stroke:#181818;stroke-width:1.0;"/><text fill="#000000" font-family="sans-serif" font-size="14" lengthAdjust="spacing" textLength="4" x="1282" y="285.7435">&#160;</text></g><!--entity st_ap6--><g id="elem_st_ap6"><polygon fill="#F1F1F1" points="1573,131.23,1817,131.23,1827,149.4742,1817,167.7183,1573,167.7183" style="stroke:#181818;stroke-width:0.5;"/><text fill="#000000" font-family="sans-serif" font-size="14" lengthAdjust="spacing" textLength="140" x="1583" y="154.7652">Snowball Key Papers</text><a href="https://github.com/IPBES-Data/IPBES_TCA_Ch3_clusters/raw/DMR_final/input/key_papers/c6_key-paper.csv" target="_top" title="https://github.com/IPBES-Data/IPBES_TCA_Ch3_clusters/raw/DMR_final/input/key_papers/c6_key-paper.csv" xlink:actuate="onRequest" xlink:href="https://github.com/IPBES-Data/IPBES_TCA_Ch3_clusters/raw/DMR_final/input/key_papers/c6_key-paper.csv" xlink:show="new" xlink:title="https://github.com/IPBES-Data/IPBES_TCA_Ch3_clusters/raw/DMR_final/input/key_papers/c6_key-paper.csv" xlink:type="simple"><text fill="#0000FF" font-family="sans-serif" font-size="14" lengthAdjust="spacing" text-decoration="underline" textLength="80" x="1727" y="154.7652">Approach 6</text></a></g><!--entity cp_ap6--><g id="elem_cp_ap6"><path d="M1582,237.72 C1582,227.72 1690,227.72 1690,227.72 C1690,227.72 1798,227.72 1798,237.72 L1798,287.6966 C1798,297.6966 1690,297.6966 1690,297.6966 C1690,297.6966 1582,297.6966 1582,287.6966 L1582,237.72 " fill="#F1F1F1" style="stroke:#181818;stroke-width:0.5;"/><path d="M1582,237.72 C1582,247.72 1690,247.72 1690,247.72 C1690,247.72 1798,247.72 1798,237.72 " fill="none" style="stroke:#181818;stroke-width:0.5;"/><text fill="#000000" font-family="sans-serif" font-size="14" lengthAdjust="spacing" textLength="196" x="1592" y="265.2552">Approach 6 snowball corpus</text><path d="M1582,263.2083 C1582,273.2083 1690,273.2083 1690,273.2083 C1690,273.2083 1798,273.2083 1798,263.2083 " fill="none" style="stroke:#181818;stroke-width:1.0;"/><text fill="#000000" font-family="sans-serif" font-size="14" lengthAdjust="spacing" textLength="4" x="1592" y="285.7435">&#160;</text></g><!--entity st_gen--><g id="elem_st_gen"><polygon fill="#F1F1F1" points="1882.5,131.23,2141.5,131.23,2151.5,149.4742,2141.5,167.7183,1882.5,167.7183" style="stroke:#181818;stroke-width:0.5;"/><text fill="#000000" font-family="sans-serif" font-size="14" lengthAdjust="spacing" textLength="140" x="1892.5" y="154.7652">Snowball Key Papers</text><a href="https://github.com/IPBES-Data/IPBES_TCA_Ch3_clusters/raw/DMR_final/input/keypapers.csv" target="_top" title="https://github.com/IPBES-Data/IPBES_TCA_Ch3_clusters/raw/DMR_final/input/keypapers.csv" xlink:actuate="onRequest" xlink:href="https://github.com/IPBES-Data/IPBES_TCA_Ch3_clusters/raw/DMR_final/input/keypapers.csv" xlink:show="new" xlink:title="https://github.com/IPBES-Data/IPBES_TCA_Ch3_clusters/raw/DMR_final/input/keypapers.csv" xlink:type="simple"><text fill="#0000FF" font-family="sans-serif" font-size="14" lengthAdjust="spacing" text-decoration="underline" textLength="95" x="2036.5" y="154.7652">keypapers.csv</text></a></g><!--entity cp_gen--><g id="elem_cp_gen"><path d="M1909,237.72 C1909,227.72 2017,227.72 2017,227.72 C2017,227.72 2125,227.72 2125,237.72 L2125,287.6966 C2125,297.6966 2017,297.6966 2017,297.6966 C2017,297.6966 1909,297.6966 1909,287.6966 L1909,237.72 " fill="#F1F1F1" style="stroke:#181818;stroke-width:0.5;"/><path d="M1909,237.72 C1909,247.72 2017,247.72 2017,247.72 C2017,247.72 2125,247.72 2125,237.72 " fill="none" style="stroke:#181818;stroke-width:0.5;"/><text fill="#000000" font-family="sans-serif" font-size="14" lengthAdjust="spacing" textLength="196" x="1919" y="265.2552">Approach 1 snowball corpus</text><path d="M1909,263.2083 C1909,273.2083 2017,273.2083 2017,273.2083 C2017,273.2083 2125,273.2083 2125,263.2083 " fill="none" style="stroke:#181818;stroke-width:1.0;"/><text fill="#000000" font-family="sans-serif" font-size="14" lengthAdjust="spacing" textLength="4" x="1919" y="285.7435">&#160;</text></g><!--entity openalex--><g id="elem_openalex"><path d="M1017.4497,22.9594 C1019.4826,15.7224 1025.6344,15.9795 1029.9696,20.5099 C1033.1851,13.8304 1038.8887,12.6535 1043.6534,18.8656 C1046.5449,12.2858 1050.5558,12.6573 1055.1653,17.0657 C1057.6009,11.3208 1063.2852,9.9956 1067.5853,14.8889 C1070.2816,8.0257 1076.4598,6 1081.2169,12.8386 C1086.5037,7.5054 1090.2543,7.685 1093.382,14.9272 C1097.7665,8.9604 1103.2229,9.8454 1106.0957,16.4553 C1111.4812,10.3695 1115.3074,11.621 1119.0596,18.1359 C1124.1277,12.6926 1129.585,13.3529 1133.331,19.7319 C1138.4089,14.7503 1142.3752,16.2974 1144.9479,22.3657 C1155.2891,26.2296 1157.7161,35.4246 1150.4559,43.8094 C1159.6547,52.7147 1154.8012,60.1953 1144.886,63.7658 C1141.7342,69.0705 1136.1724,70.2817 1132.7498,64.0506 C1129.575,70.7147 1123.2267,71.3164 1118.7423,65.5233 C1115.4973,72.1154 1110.2189,71.2326 1106.3739,66.1596 C1102.8707,72.1739 1098.4078,72.3749 1094.8572,66.2045 C1090.5023,74.0895 1085.7227,74.4699 1080.3352,67.1935 C1077.2633,73.2643 1072.247,72.1422 1069.0834,67.2879 C1063.5313,72.5659 1058.2171,73.1587 1054.7088,65.0872 C1050.6583,71.1692 1046.3476,70.9335 1042.1884,65.2024 C1038.4365,71.1221 1032.4678,71.0775 1029.9377,64.0467 C1026.4839,70.5272 1019.9562,71.4142 1016.4708,64.0775 C1005.5459,59.7049 1003.0659,50.9176 1013.3982,43.3881 C1005.4132,35.9243 1007.7497,26.9159 1017.4497,22.9594 " fill="#FFC0CB" style="stroke:#181818;stroke-width:0.5;"/><a href="https://openalex.org" target="_top" title="https://openalex.org" xlink:actuate="onRequest" xlink:href="https://openalex.org" xlink:show="new" xlink:title="https://openalex.org" xlink:type="simple"><text fill="#0000FF" font-family="sans-serif" font-size="24" lengthAdjust="spacing" text-decoration="underline" textLength="114" x="1023" y="51.1632">OpenAlex</text></a></g><!--entity overlap--><g id="elem_overlap"><polygon fill="#F1F1F1" points="771.5,357.7,1076.5,357.7,1086.5,375.9442,1076.5,394.1883,771.5,394.1883,781.5,375.9442" style="stroke:#181818;stroke-width:0.5;"/><text fill="#000000" font-family="sans-serif" font-size="14" lengthAdjust="spacing" textLength="275" x="791.5" y="381.2352">determine Overlap between Approaches</text></g><!--entity file_overlap--><g id="elem_file_overlap"><path d="M724.5,456.68 L724.5,512.6566 A2.5,2.5 0 0 0 727,515.1566 L887,515.1566 A2.5,2.5 0 0 0 889.5,512.6566 L889.5,464.18 L879.5,454.18 L727,454.18 A2.5,2.5 0 0 0 724.5,456.68 " fill="#FFFF00" style="stroke:#181818;stroke-width:0.5;"/><path d="M879.5,454.18 L879.5,461.68 A2.5,2.5 0 0 0 882,464.18 L889.5,464.18 " fill="#FFFF00" style="stroke:#181818;stroke-width:0.5;"/><text fill="#000000" font-family="sans-serif" font-size="14" lengthAdjust="spacing" textLength="88" x="734.5" y="477.7152">Overlap Data</text><line style="stroke:#181818;stroke-width:1.0;" x1="725.5" x2="888.5" y1="480.6683" y2="480.6683"/><text fill="#000000" font-family="sans-serif" font-size="14" font-weight="bold" lengthAdjust="spacing" textLength="65" x="734.5" y="498.2035">Filename</text><text fill="#000000" font-family="sans-serif" font-size="14" lengthAdjust="spacing" textLength="80" x="799.5" y="498.2035">: cluster.rds</text></g><!--entity figure_overlap--><g id="elem_figure_overlap"><path d="M924.5,456.68 L924.5,512.6566 A2.5,2.5 0 0 0 927,515.1566 L1175,515.1566 A2.5,2.5 0 0 0 1177.5,512.6566 L1177.5,464.18 L1167.5,454.18 L927,454.18 A2.5,2.5 0 0 0 924.5,456.68 " fill="#FFFF00" style="stroke:#181818;stroke-width:0.5;"/><path d="M1167.5,454.18 L1167.5,461.68 A2.5,2.5 0 0 0 1170,464.18 L1177.5,464.18 " fill="#FFFF00" style="stroke:#181818;stroke-width:0.5;"/><text fill="#000000" font-family="sans-serif" font-size="14" lengthAdjust="spacing" textLength="175" x="934.5" y="477.7152">Interactive Circular Graph</text><line style="stroke:#181818;stroke-width:1.0;" x1="925.5" x2="1176.5" y1="480.6683" y2="480.6683"/><text fill="#000000" font-family="sans-serif" font-size="14" font-weight="bold" lengthAdjust="spacing" textLength="65" x="934.5" y="498.2035">Filename</text><text fill="#000000" font-family="sans-serif" font-size="14" lengthAdjust="spacing" textLength="4" x="999.5" y="498.2035">:</text><a href="https://github.com/IPBES-Data/IPBES_TCA_Ch3_clusters/raw/DMR_final/figures/common_l3_equal.html" target="_top" title="https://github.com/IPBES-Data/IPBES_TCA_Ch3_clusters/raw/DMR_final/figures/common_l3_equal.html" xlink:actuate="onRequest" xlink:href="https://github.com/IPBES-Data/IPBES_TCA_Ch3_clusters/raw/DMR_final/figures/common_l3_equal.html" xlink:show="new" xlink:title="https://github.com/IPBES-Data/IPBES_TCA_Ch3_clusters/raw/DMR_final/figures/common_l3_equal.html" xlink:type="simple"><text fill="#0000FF" font-family="sans-serif" font-size="14" lengthAdjust="spacing" text-decoration="underline" textLength="160" x="1007.5" y="498.2035">common_l3_equal.html</text></a></g><!--link openalex to st_ap1--><g id="link_openalex_st_ap1"><path d="M1007.57,44.74 C843.5,48.87 447.63,61.39 317,88.23 C271.71,97.54 227.6778,114.2633 194.4078,128.4733 " fill="none" id="openalex-to-st_ap1" style="stroke:#181818;stroke-width:1.0;"/><polygon fill="#181818" points="188.89,130.83,198.7378,130.9735,193.4882,128.8661,195.5955,123.6165,188.89,130.83" style="stroke:#181818;stroke-width:1.0;"/></g><!--link st_ap1 to cp_ap1--><g id="link_st_ap1_cp_ap1"><path d="M151.41,167.85 C152.69,183.74 154.1453,201.7097 155.7453,221.4497 " fill="none" id="st_ap1-to-cp_ap1" style="stroke:#181818;stroke-width:1.0;"/><polygon fill="#181818" points="156.23,227.43,159.4898,218.1363,155.8261,222.4464,151.516,218.7826,156.23,227.43" style="stroke:#181818;stroke-width:1.0;"/></g><!--link openalex to st_ap2--><g id="link_openalex_st_ap2"><path d="M1007.73,44.82 C917.57,48.21 759.2,58.29 627,88.23 C582.51,98.31 539.1892,114.5642 505.8692,128.4342 " fill="none" id="openalex-to-st_ap2" style="stroke:#181818;stroke-width:1.0;"/><polygon fill="#181818" points="500.33,130.74,510.1761,130.9742,504.946,128.8185,507.1017,123.5885,500.33,130.74" style="stroke:#181818;stroke-width:1.0;"/></g><!--link st_ap2 to cp_ap2--><g id="link_st_ap2_cp_ap2"><path d="M461.41,167.85 C462.69,183.74 464.1453,201.7097 465.7453,221.4497 " fill="none" id="st_ap2-to-cp_ap2" style="stroke:#181818;stroke-width:1.0;"/><polygon fill="#181818" points="466.23,227.43,469.4898,218.1363,465.8261,222.4464,461.516,218.7826,466.23,227.43" style="stroke:#181818;stroke-width:1.0;"/></g><!--link openalex to st_ap3--><g id="link_openalex_st_ap3"><path d="M1007.8,65.26 C985.08,72.4 959.94,80.48 937,88.23 C896.41,101.95 856.2997,116.4548 822.9597,128.7448 " fill="none" id="openalex-to-st_ap3" style="stroke:#181818;stroke-width:1.0;"/><polygon fill="#181818" points="817.33,130.82,827.158,131.4603,822.0214,129.0907,824.391,123.954,817.33,130.82" style="stroke:#181818;stroke-width:1.0;"/></g><!--link st_ap3 to cp_ap3--><g id="link_st_ap3_cp_ap3"><path d="M771.41,167.85 C772.69,183.74 774.1453,201.7097 775.7453,221.4497 " fill="none" id="st_ap3-to-cp_ap3" style="stroke:#181818;stroke-width:1.0;"/><polygon fill="#181818" points="776.23,227.43,779.4898,218.1363,775.8261,222.4464,771.516,218.7826,776.23,227.43" style="stroke:#181818;stroke-width:1.0;"/></g><!--link openalex to st_ap4--><g id="link_openalex_st_ap4"><path d="M1080,71.61 C1080,90.51 1080,108.7 1080,124.85 " fill="none" id="openalex-to-st_ap4" style="stroke:#181818;stroke-width:1.0;"/><polygon fill="#181818" points="1080,130.85,1084,121.85,1080,125.85,1076,121.85,1080,130.85" style="stroke:#181818;stroke-width:1.0;"/></g><!--link st_ap4 to cp_ap4--><g id="link_st_ap4_cp_ap4"><path d="M1078.44,167.85 C1077.01,183.74 1075.3988,201.7143 1073.6188,221.4543 " fill="none" id="st_ap4-to-cp_ap4" style="stroke:#181818;stroke-width:1.0;"/><polygon fill="#181818" points="1073.08,227.43,1077.8721,218.8256,1073.529,222.4502,1069.9044,218.1072,1073.08,227.43" style="stroke:#181818;stroke-width:1.0;"/></g><!--link openalex to st_ap5--><g id="link_openalex_st_ap5"><path d="M1152.2,65.26 C1174.92,72.4 1200.06,80.48 1223,88.23 C1263.59,101.95 1303.7003,116.4548 1337.0403,128.7448 " fill="none" id="openalex-to-st_ap5" style="stroke:#181818;stroke-width:1.0;"/><polygon fill="#181818" points="1342.67,130.82,1335.609,123.954,1337.9786,129.0907,1332.842,131.4603,1342.67,130.82" style="stroke:#181818;stroke-width:1.0;"/></g><!--link st_ap5 to cp_ap5--><g id="link_st_ap5_cp_ap5"><path d="M1388.44,167.85 C1387.01,183.74 1385.3988,201.7143 1383.6188,221.4543 " fill="none" id="st_ap5-to-cp_ap5" style="stroke:#181818;stroke-width:1.0;"/><polygon fill="#181818" points="1383.08,227.43,1387.8721,218.8256,1383.529,222.4502,1379.9044,218.1072,1383.08,227.43" style="stroke:#181818;stroke-width:1.0;"/></g><!--link openalex to st_ap6--><g id="link_openalex_st_ap6"><path d="M1152.27,44.82 C1242.43,48.21 1400.8,58.29 1533,88.23 C1577.49,98.31 1620.8108,114.5642 1654.1308,128.4342 " fill="none" id="openalex-to-st_ap6" style="stroke:#181818;stroke-width:1.0;"/><polygon fill="#181818" points="1659.67,130.74,1652.8983,123.5885,1655.054,128.8185,1649.8239,130.9742,1659.67,130.74" style="stroke:#181818;stroke-width:1.0;"/></g><!--link st_ap6 to cp_ap6--><g id="link_st_ap6_cp_ap6"><path d="M1698.44,167.85 C1697.01,183.74 1695.3988,201.7143 1693.6188,221.4543 " fill="none" id="st_ap6-to-cp_ap6" style="stroke:#181818;stroke-width:1.0;"/><polygon fill="#181818" points="1693.08,227.43,1697.8721,218.8256,1693.529,222.4502,1689.9044,218.1072,1693.08,227.43" style="stroke:#181818;stroke-width:1.0;"/></g><!--link openalex to st_gen--><g id="link_openalex_st_gen"><path d="M1152.41,44.85 C1316.43,49.24 1712.2,62.23 1843,88.23 C1890.03,97.58 1936.1367,114.3782 1970.8467,128.5782 " fill="none" id="openalex-to-st_gen" style="stroke:#181818;stroke-width:1.0;"/><polygon fill="#181818" points="1976.4,130.85,1969.5847,123.7401,1971.7723,128.9568,1966.5555,131.1444,1976.4,130.85" style="stroke:#181818;stroke-width:1.0;"/></g><!--link st_gen to cp_gen--><g id="link_st_gen_cp_gen"><path d="M2017,167.85 C2017,183.74 2017,201.69 2017,221.43 " fill="none" id="st_gen-to-cp_gen" style="stroke:#181818;stroke-width:1.0;"/><polygon fill="#181818" points="2017,227.43,2021,218.43,2017,222.43,2013,218.43,2017,227.43" style="stroke:#181818;stroke-width:1.0;"/></g><!--link cp_ap1 to overlap--><g id="link_cp_ap1_overlap"><path d="M240.18,298.17 C264.49,307.21 291.47,316.01 317,321.7 C468.98,355.56 640.674,367.9016 765.304,372.4416 " fill="none" id="cp_ap1-to-overlap" style="stroke:#181818;stroke-width:1.0;"/><polygon fill="#181818" points="771.3,372.66,762.4516,368.3351,766.3033,372.478,762.1604,376.3298,771.3,372.66" style="stroke:#181818;stroke-width:1.0;"/></g><!--link cp_ap2 to overlap--><g id="link_cp_ap2_overlap"><path d="M554.21,298.11 C577.54,306.67 603.02,315.23 627,321.7 C682.78,336.72 739.5965,347.6153 793.3865,356.2853 " fill="none" id="cp_ap2-to-overlap" style="stroke:#181818;stroke-width:1.0;"/><polygon fill="#181818" points="799.31,357.24,791.0612,351.8588,794.3737,356.4444,789.7882,359.7569,799.31,357.24" style="stroke:#181818;stroke-width:1.0;"/></g><!--link cp_ap3 to overlap--><g id="link_cp_ap3_overlap"><path d="M825.23,297.99 C851.74,317.65 879.0912,337.9253 900.5112,353.8153 " fill="none" id="cp_ap3-to-overlap" style="stroke:#181818;stroke-width:1.0;"/><polygon fill="#181818" points="905.33,357.39,900.4849,348.8154,901.3143,354.4111,895.7186,355.2405,905.33,357.39" style="stroke:#181818;stroke-width:1.0;"/></g><!--link cp_ap4 to overlap--><g id="link_cp_ap4_overlap"><path d="M1026.54,297.99 C1001.62,317.65 976.1004,337.7836 955.9604,353.6736 " fill="none" id="cp_ap4-to-overlap" style="stroke:#181818;stroke-width:1.0;"/><polygon fill="#181818" points="951.25,357.39,960.7933,354.9557,955.1754,354.293,955.838,348.6751,951.25,357.39" style="stroke:#181818;stroke-width:1.0;"/></g><!--link cp_ap5 to overlap--><g id="link_cp_ap5_overlap"><path d="M1295.32,298.06 C1272.14,306.61 1246.83,315.19 1223,321.7 C1168.33,336.62 1112.6992,347.5189 1060.0892,356.2389 " fill="none" id="cp_ap5-to-overlap" style="stroke:#181818;stroke-width:1.0;"/><polygon fill="#181818" points="1054.17,357.22,1063.7029,359.6945,1059.1027,356.4025,1062.3948,351.8022,1054.17,357.22" style="stroke:#181818;stroke-width:1.0;"/></g><!--link cp_ap6 to overlap--><g id="link_cp_ap6_overlap"><path d="M1609.35,298.16 C1585.2,307.2 1558.37,316 1533,321.7 C1383.94,355.16 1215.7757,367.5727 1092.8657,372.2327 " fill="none" id="cp_ap6-to-overlap" style="stroke:#181818;stroke-width:1.0;"/><polygon fill="#181818" points="1086.87,372.46,1096.0151,376.1162,1091.8664,372.2706,1095.712,368.1219,1086.87,372.46" style="stroke:#181818;stroke-width:1.0;"/></g><!--link overlap to file_overlap--><g id="link_overlap_file_overlap"><path d="M908.85,394.56 C890.45,410.67 867.3656,430.8592 845.5356,449.9592 " fill="none" id="overlap-to-file_overlap" style="stroke:#181818;stroke-width:1.0;"/><polygon fill="#181818" points="841.02,453.91,850.4273,450.9941,844.783,450.6176,845.1595,444.9733,841.02,453.91" style="stroke:#181818;stroke-width:1.0;"/></g><!--link overlap to figure_overlap--><g id="link_overlap_figure_overlap"><path d="M949.15,394.56 C967.55,410.67 990.6344,430.8592 1012.4644,449.9592 " fill="none" id="overlap-to-figure_overlap" style="stroke:#181818;stroke-width:1.0;"/><polygon fill="#181818" points="1016.98,453.91,1012.8405,444.9733,1013.217,450.6176,1007.5727,450.9941,1016.98,453.91" style="stroke:#181818;stroke-width:1.0;"/></g><!--SRC=[xLnhRziu5ltkNq6aM6GtGEpOaZsBOdU0r4apmRH9jixiOgOD14PYPA6ofD4ZZndalozV4ac9bEJKiOl5veCbyN7lkOVtKdmfRXWN7jZxHnRyWTvEx1y_VrxcUPAz7OtY14KmH8_3EFN19NuunWytDti0Pg3C0s-I8Few6AJ8pM7aXmZi7IT96aDt2SPxuCy1m7_GpOCu0dkBA7wuXM48VaPFu0ecACs0KES7-RAu7RhnQdH-zUvqSNW2SyXkdUlviJDVMeuR5bcEgurI-30w-VZ9kGimZ54G9KK- -egUd8HA7RbZ1pyTqgUXczq30OeRaEKEJCOKNcNBuU6FShg7zT_2J349PAKDRfmcHVObEiH_No8gqqsgkamCbSXJdqdo06YPckoGgOc9gOdCrCJ0rEGRc9e8fYQ2gSdWsS2IjKEMB1DBbioIPM39-WQMBC6I9LYoZ2pPEsJ9Dh5aoopP1fPi4qjsDqksOCaMBDb6bgOxP6bgOcagipGri3GriJJjPcagM9eAbgP6bcOxP6bcOcacipGpi3GpiJJhPcacM9e9bcPrbivGX58OWfAJxNF5gABiA4-281z5MeBAz9TqIMLT9gOaYAG-3mPOY8ko3Env22DV1H42b_Se3M42Rb7-W725KXFAs4Y2PG_OQvAAKv8cpIIhcMGtawRDf9cIDBWBI3kM-4W3K5k_H0S7xt5M15VeuE0juCqmJ3s6c5Hpk13mvWc5OVmmA9-90hb0gUKymYA8QzmZC0zIjmXX2ivIc2orEZVYA7U1NwG8nrAyMiMH4reE-hs0uN2PhqZZDXEvux1w7IRAHGQ3mJxO1nWE686pCCRU0-RKUN2w53AQ0bJXRVpev2x40RGFb112CCKkUOqzIM8aI6vHTaXSTyZ92MAP42gNHmcMwZ0t7cLKs5ycHyGnir44Ssp1C7_CmSNnzI-VJczkmF75oSRrv7SkLNBzVbx69Ir03ERcYYXaCa5y1wWUS9t2ABkBqnLaZhF4H29md6KunbOeoilOr11RkTLvHDmZk0_o9-9PyoLoloAFv2mIv0PtWSjpBkAyp6MnJkNGXYbTWE5LUvEwDI8177hnGqJwXqeIBxCF5jWhuZIhDVZfOqw2H6e4BtQpeH_7s7ze36H9Yg2NBH7Aiv4t6lysV-SiyidrlmhduOFr58w3Yn_-y_Z7zFtffxF7huTdlnqVEPFupFtqyMY4l21_umVUFoVZezdqxqS_Z4iOl6KGK-zaB5K2B75H6cKkBDgJj0jN8LCgLQbHgn5QPx6fRnyaQR1oyZW9N9hENP7qMBn8rI-N35_X6Z1z0jUq4WM7cKqW3kgQC9K17R3sYgp_K_N9dUsw0KVovNWpszv2IzNJXGtOjHOn65SPhnCng1gcf8jqb4uUh913pTCqp1NJKxeBVKi1KeDofJGG5ifahTKwcbgiQHIDrwL6xMl9R8wWKzPZu58feX2f0QaXaRz-EgnuJmjLTgphP-NRK-dQQq26YNVNX3VyAqaUWIJo_oOxMcKSVtjIWZu4_ZB7Ac4ecTE78I6aGHHsgYHEIPVQaxGhKS54u0Rfqy9JgDINQA6LLDWCjpf98fwJuZOCN5X3rj7dbg5z9IetWnfBVa5GQshn_bRILRNePllTFbJq8qpfZIMBJ5snN4JjXvjqcDfC5mvQqZOU1deyrFyDMGR7hwpjzlaUbEdSVHuNKPu6o3HEg_ALuPDRflORGEcAgqCeLGqNfLGp3AFKChM1b4xlFb1IUmHrXQqPqYqyw86rLMnwgAfvGr5jCj_8Y-oGRKsYjKrrHNs3A35H5G4hc6GzgFc8YxsG6gB16BSLa6RSYgoMk2N2vO1zWf4ShoqioRL9f3wpoVSSHqkcdNNBEHH4MaHH4FdE-7z_mlqg6bnCA5KnFrwSDYRr3idkdjcJRcqv0OUiuRYBoarbci1BqtJD9DumWwUW-atZPVorLCs4lYpDlV0QkSie3cF_IRy09B8F3ZWbrvTW_jFf_EU30x4M98fjnaEN4qacRzzQehXbtdCw_-dYyiFbsQzhEr4FPVT1XgsXYlvzlZY_lAXvKLMouKTvdM2veOCeRzOjcPkdCNvlFM34pFcasYI7DcQBOhC3YqRbBjjmWfUviiwJXUGUlbmtff5UzsSjVzeyKTFCdJpawIYfoMh4cgXKlXeDeyMUCv1hxTg262YQp6aYxAwx-Jc96azq55DBCxC3p5dwcOZ9wreCDyrBwipizvoWxB_654Kbh9ogzEDn0zCLYTR6h6NVt0RjqvTccAWm4uoIZQwUEjVY-etjrm-KbiezX_dgibodWTeXUfTNQukQ1kmAxNmmi2Xkiy0B3CFIUcxrzi-gZ3_1_yUdQi1E1JjEYiZE4DU7tskQF9y4PKHsYkYMOEG6CCIb4hAuHa4iVdctE3yvFrse0v1AKClhjLwcQwWmnKC5qUPPNf0hT-UwBsnim21yIVNnkWsDJPRAE6d7AY8TJPG3YBbuoeBceWYX5M3YfRB7l2nV824bd8oqHvs-1c2nJ6Ak93XlQWGCZxhlf96XbT_STDBK90lEEBcaG-IJGmZrFhK9a3VowIEE2vn4WGfPRHpfeRRNBHUy6pHzGbaHvkil4gmRYqHrgTHPO5CGMrWnfAiht8h1gYiRpAwlR2kKA0rOAS-eScdzecsRAi6l6tBwfI9KiqqLoIjmkWOnOLv316vJBHJ3_bM7kJNEDQgDMrg6uircCDl3seFQu7oEK35AOlnUGZuvmP7WMjwDz7RNBOBfbD2r8Wb-jTu4FlEgv4-GHrRCw8-KYwcKdhujHkYocZv4XFNOUDLK1uOXto9gBwCCFdSDUdpKYHaNsI5ax62TFElBV5UW6pnhY-pKDVmU_kn_R_xiT_kp_rtnJ3hAJg8DXRuls0sgzMLqe6yQRzXrNqpgEwDrj43GPKZQ8zISQ2bVBUe9a-PWWKxaNpnECDQMXtsz3hcqMQaP9QYAsmO8jPBD9j3Q80qBf6KMxG1XH0Copcxuwf5XTA2guMidcRmCOnWSr9USNckGK1rTRG-SvlcHPeRpIe6zFaI7DuuPQbbWnuW932EnQkREaHPjI8ll1oaPaHYHgfaxHafVD4QejTn-xvyr-xsoGnfq7hpgMi7jT-IgzrfCPys-6nqjwxTjPokRUhjs90oa6mtOsN6fzLtsrJOc6fDbuscgBdRh0hUr9x6sGtUjiMnZGwBBfpi7iMqBAprF4QadR3fNJSndZbvpyMHpPv9q7NOdpKrwgZqV-ID2pmk8RhemL-tQi8Q7LPvJxSdZlAqUHtANO-Tep8xnBCVWQApkWB3iodt41aXA747iWYZbjePx8d1FDBWd6jmro9DjGxO4P4i3sUf9jRLjtBR0RMjmsprnszl6FHMufnhSqvwufzl6FHEuPnhSivwuPuEj0Yy3iX6Dapvu9zi5QucEpz9qV5RFZi_QTiTdYOxFqdHybhxZq-6UR1kt9N1R6jnMJzpMjd7R0hUjmMttn6rl6_TKu9vgS4zxufvk6_TCu9vfSCzwufxjh4EnDHsAtRD3iNVOeTYQ3iNksQ7mSiy3kLIHa2C9-e7kWFxjWm-dPwSN9uC8FIJGHz8_b_Y0V1Hv_1zAkEm_D2tY8dKH22AGB_4qa2JokTTXzT-PoFrmEDpZ_vP9FI9oWiVmOGmzvDLFsRodNvZJYHjCVozGJcjbAD-hfc96KVGV6woG5y0SzPUh_AUCOtPDKOXbU22FvVyyGKoI9n3acHvb3YAVbwF7YAZT0sNAN1tnA2Npd4ek_qm8HCNg5gMgb2p7ituVstfHh50Qk5W8FIV2Sjcic1qT0HcynyAnvv0fC1TERW6plrA7sGiPLhwmGMvNx0CLeLWHRPnXirR-LJIEKgtswMkpehIkqQYCfw-TDSddAi-b6wiVQnqN-P9yKzeydWxvTprgUVv5UBDuNdxXKl_g338Dx4WLbygAnIdxBPz6O8zTzqYAJmzlaL_obER17PN6Rt3QBTb28L-fbpSupOMfHt_8VP2wc2Xs8Szn62ANVJOhtTESLH97H5zrHrFnp3eEoojE8Ukg-HE_3FR58WIvZqCFfVn2dbD8rk78BtvQeaVeOrRu5QS491An9KZSuTGGtgAG_UAdAFOG_S7t2NI_4W_dLvA2Wm2BP1Vop2E9Nt4A3k82iLzbkb_TuTGinmBPBtrYSSIlE0K7BFsOX5z52cwjycxllm00]--></g></svg>