<svg xmlns="http://www.w3.org/2000/svg" xmlns:xlink="http://www.w3.org/1999/xlink" contentStyleType="text/css" height="592px" preserveAspectRatio="none" style="width:2215px;height:592px;background:#FFFFFF;" version="1.1" viewBox="0 0 2215 592" width="2215px" zoomAndPan="magnify"><defs/><g><!--cluster General Snowball--><g id="cluster_General Snowball"><rect fill="none" height="216.89" rx="2.5" ry="2.5" style="stroke:#181818;stroke-width:1.0;" width="308" x="29.5" y="94.3707"/><text fill="#000000" font-family="sans-serif" font-size="14" font-weight="bold" lengthAdjust="spacing" textLength="138" x="114.5" y="109.3658">General Snowball</text></g><!--cluster Approach 1--><g id="cluster_Approach 1"><rect fill="none" height="216.89" rx="2.5" ry="2.5" style="stroke:#181818;stroke-width:1.0;" width="288" x="361.5" y="94.3707"/><text fill="#000000" font-family="sans-serif" font-size="14" font-weight="bold" lengthAdjust="spacing" textLength="91" x="460" y="109.3658">Approach 1</text></g><!--cluster Approach 2--><g id="cluster_Approach 2"><rect fill="none" height="216.89" rx="2.5" ry="2.5" style="stroke:#181818;stroke-width:1.0;" width="288" x="673.5" y="94.3707"/><text fill="#000000" font-family="sans-serif" font-size="14" font-weight="bold" lengthAdjust="spacing" textLength="91" x="772" y="109.3658">Approach 2</text></g><!--cluster Approach 3--><g id="cluster_Approach 3"><rect fill="none" height="216.89" rx="2.5" ry="2.5" style="stroke:#181818;stroke-width:1.0;" width="288" x="985.5" y="94.3707"/><text fill="#000000" font-family="sans-serif" font-size="14" font-weight="bold" lengthAdjust="spacing" textLength="91" x="1084" y="109.3658">Approach 3</text></g><!--cluster Approach 4--><g id="cluster_Approach 4"><rect fill="none" height="216.89" rx="2.5" ry="2.5" style="stroke:#181818;stroke-width:1.0;" width="288" x="1297.5" y="94.3707"/><text fill="#000000" font-family="sans-serif" font-size="14" font-weight="bold" lengthAdjust="spacing" textLength="91" x="1396" y="109.3658">Approach 4</text></g><!--cluster Approach 5--><g id="cluster_Approach 5"><rect fill="none" height="216.89" rx="2.5" ry="2.5" style="stroke:#181818;stroke-width:1.0;" width="288" x="1609.5" y="94.3707"/><text fill="#000000" font-family="sans-serif" font-size="14" font-weight="bold" lengthAdjust="spacing" textLength="91" x="1708" y="109.3658">Approach 5</text></g><!--cluster Approach 6--><g id="cluster_Approach 6"><rect fill="none" height="216.89" rx="2.5" ry="2.5" style="stroke:#181818;stroke-width:1.0;" width="288" x="1921.5" y="94.3707"/><text fill="#000000" font-family="sans-serif" font-size="14" font-weight="bold" lengthAdjust="spacing" textLength="91" x="2020" y="109.3658">Approach 6</text></g><!--entity st_gen--><g id="elem_st_gen"><polygon fill="#F1F1F1" points="46,129.3707,311,129.3707,321,147.5191,311,165.6675,46,165.6675" style="stroke:#181818;stroke-width:0.5;"/><text fill="#000000" font-family="sans-serif" font-size="14" lengthAdjust="spacing" textLength="142" x="56" y="152.3658">Snowball Key Papers</text><a href="https://github.com/IPBES-Data/IPBES_TCA_Ch3_clusters/raw/DMR_final/input/keypapers.csv" target="_top" title="https://github.com/IPBES-Data/IPBES_TCA_Ch3_clusters/raw/DMR_final/input/keypapers.csv" xlink:actuate="onRequest" xlink:href="https://github.com/IPBES-Data/IPBES_TCA_Ch3_clusters/raw/DMR_final/input/keypapers.csv" xlink:show="new" xlink:title="https://github.com/IPBES-Data/IPBES_TCA_Ch3_clusters/raw/DMR_final/input/keypapers.csv" xlink:type="simple"><text fill="#0000FF" font-family="sans-serif" font-size="14" lengthAdjust="spacing" text-decoration="underline" textLength="99" x="202" y="152.3658">keypapers.csv</text></a></g><!--entity cp_gen--><g id="elem_cp_gen"><path d="M45,235.6707 C45,225.6707 183.5,225.6707 183.5,225.6707 C183.5,225.6707 322,225.6707 322,235.6707 L322,285.2644 C322,295.2644 183.5,295.2644 183.5,295.2644 C183.5,295.2644 45,295.2644 45,285.2644 L45,235.6707 " fill="#F1F1F1" style="stroke:#181818;stroke-width:0.5;"/><path d="M45,235.6707 C45,245.6707 183.5,245.6707 183.5,245.6707 C183.5,245.6707 322,245.6707 322,235.6707 " fill="none" style="stroke:#181818;stroke-width:0.5;"/><text fill="#000000" font-family="sans-serif" font-size="14" lengthAdjust="spacing" textLength="257" x="55" y="262.6658">General Approaches snowball corpus</text><path d="M45,260.9675 C45,270.9675 183.5,270.9675 183.5,270.9675 C183.5,270.9675 322,270.9675 322,260.9675 " fill="none" style="stroke:#181818;stroke-width:1.0;"/><text fill="#000000" font-family="sans-serif" font-size="14" lengthAdjust="spacing" textLength="4" x="55" y="282.9626">&#160;</text></g><!--entity st_ap1--><g id="elem_st_ap1"><polygon fill="#F1F1F1" points="378,129.3707,623,129.3707,633,147.5191,623,165.6675,378,165.6675" style="stroke:#181818;stroke-width:0.5;"/><text fill="#000000" font-family="sans-serif" font-size="14" lengthAdjust="spacing" textLength="142" x="388" y="152.3658">Snowball Key Papers</text><a href="https://github.com/IPBES-Data/IPBES_TCA_Ch3_clusters/raw/DMR_final/input/key_papers/c1_key-paper.csv" target="_top" title="https://github.com/IPBES-Data/IPBES_TCA_Ch3_clusters/raw/DMR_final/input/key_papers/c1_key-paper.csv" xlink:actuate="onRequest" xlink:href="https://github.com/IPBES-Data/IPBES_TCA_Ch3_clusters/raw/DMR_final/input/key_papers/c1_key-paper.csv" xlink:show="new" xlink:title="https://github.com/IPBES-Data/IPBES_TCA_Ch3_clusters/raw/DMR_final/input/key_papers/c1_key-paper.csv" xlink:type="simple"><text fill="#0000FF" font-family="sans-serif" font-size="14" lengthAdjust="spacing" text-decoration="underline" textLength="79" x="534" y="152.3658">Approach 1</text></a></g><!--entity cp_ap1--><g id="elem_cp_ap1"><path d="M409,235.6707 C409,225.6707 516.5,225.6707 516.5,225.6707 C516.5,225.6707 624,225.6707 624,235.6707 L624,285.2644 C624,295.2644 516.5,295.2644 516.5,295.2644 C516.5,295.2644 409,295.2644 409,285.2644 L409,235.6707 " fill="#F1F1F1" style="stroke:#181818;stroke-width:0.5;"/><path d="M409,235.6707 C409,245.6707 516.5,245.6707 516.5,245.6707 C516.5,245.6707 624,245.6707 624,235.6707 " fill="none" style="stroke:#181818;stroke-width:0.5;"/><text fill="#000000" font-family="sans-serif" font-size="14" lengthAdjust="spacing" textLength="195" x="419" y="262.6658">Approach 1 snowball corpus</text><path d="M409,260.9675 C409,270.9675 516.5,270.9675 516.5,270.9675 C516.5,270.9675 624,270.9675 624,260.9675 " fill="none" style="stroke:#181818;stroke-width:1.0;"/><text fill="#000000" font-family="sans-serif" font-size="14" lengthAdjust="spacing" textLength="4" x="419" y="282.9626">&#160;</text></g><!--entity st_ap2--><g id="elem_st_ap2"><polygon fill="#F1F1F1" points="690,129.3707,935,129.3707,945,147.5191,935,165.6675,690,165.6675" style="stroke:#181818;stroke-width:0.5;"/><text fill="#000000" font-family="sans-serif" font-size="14" lengthAdjust="spacing" textLength="142" x="700" y="152.3658">Snowball Key Papers</text><a href="https://github.com/IPBES-Data/IPBES_TCA_Ch3_clusters/raw/DMR_final/input/key_papers/c2_key-paper.csv" target="_top" title="https://github.com/IPBES-Data/IPBES_TCA_Ch3_clusters/raw/DMR_final/input/key_papers/c2_key-paper.csv" xlink:actuate="onRequest" xlink:href="https://github.com/IPBES-Data/IPBES_TCA_Ch3_clusters/raw/DMR_final/input/key_papers/c2_key-paper.csv" xlink:show="new" xlink:title="https://github.com/IPBES-Data/IPBES_TCA_Ch3_clusters/raw/DMR_final/input/key_papers/c2_key-paper.csv" xlink:type="simple"><text fill="#0000FF" font-family="sans-serif" font-size="14" lengthAdjust="spacing" text-decoration="underline" textLength="79" x="846" y="152.3658">Approach 2</text></a></g><!--entity cp_ap2--><g id="elem_cp_ap2"><path d="M720,235.6707 C720,225.6707 827.5,225.6707 827.5,225.6707 C827.5,225.6707 935,225.6707 935,235.6707 L935,285.2644 C935,295.2644 827.5,295.2644 827.5,295.2644 C827.5,295.2644 720,295.2644 720,285.2644 L720,235.6707 " fill="#F1F1F1" style="stroke:#181818;stroke-width:0.5;"/><path d="M720,235.6707 C720,245.6707 827.5,245.6707 827.5,245.6707 C827.5,245.6707 935,245.6707 935,235.6707 " fill="none" style="stroke:#181818;stroke-width:0.5;"/><text fill="#000000" font-family="sans-serif" font-size="14" lengthAdjust="spacing" textLength="195" x="730" y="262.6658">Approach 2 snowball corpus</text><path d="M720,260.9675 C720,270.9675 827.5,270.9675 827.5,270.9675 C827.5,270.9675 935,270.9675 935,260.9675 " fill="none" style="stroke:#181818;stroke-width:1.0;"/><text fill="#000000" font-family="sans-serif" font-size="14" lengthAdjust="spacing" textLength="4" x="730" y="282.9626">&#160;</text></g><!--entity st_ap3--><g id="elem_st_ap3"><polygon fill="#F1F1F1" points="1002,129.3707,1247,129.3707,1257,147.5191,1247,165.6675,1002,165.6675" style="stroke:#181818;stroke-width:0.5;"/><text fill="#000000" font-family="sans-serif" font-size="14" lengthAdjust="spacing" textLength="142" x="1012" y="152.3658">Snowball Key Papers</text><a href="https://github.com/IPBES-Data/IPBES_TCA_Ch3_clusters/raw/DMR_final/input/key_papers/c3_key-paper.csv" target="_top" title="https://github.com/IPBES-Data/IPBES_TCA_Ch3_clusters/raw/DMR_final/input/key_papers/c3_key-paper.csv" xlink:actuate="onRequest" xlink:href="https://github.com/IPBES-Data/IPBES_TCA_Ch3_clusters/raw/DMR_final/input/key_papers/c3_key-paper.csv" xlink:show="new" xlink:title="https://github.com/IPBES-Data/IPBES_TCA_Ch3_clusters/raw/DMR_final/input/key_papers/c3_key-paper.csv" xlink:type="simple"><text fill="#0000FF" font-family="sans-serif" font-size="14" lengthAdjust="spacing" text-decoration="underline" textLength="79" x="1158" y="152.3658">Approach 3</text></a></g><!--entity cp_ap3--><g id="elem_cp_ap3"><path d="M1032,235.6707 C1032,225.6707 1139.5,225.6707 1139.5,225.6707 C1139.5,225.6707 1247,225.6707 1247,235.6707 L1247,285.2644 C1247,295.2644 1139.5,295.2644 1139.5,295.2644 C1139.5,295.2644 1032,295.2644 1032,285.2644 L1032,235.6707 " fill="#F1F1F1" style="stroke:#181818;stroke-width:0.5;"/><path d="M1032,235.6707 C1032,245.6707 1139.5,245.6707 1139.5,245.6707 C1139.5,245.6707 1247,245.6707 1247,235.6707 " fill="none" style="stroke:#181818;stroke-width:0.5;"/><text fill="#000000" font-family="sans-serif" font-size="14" lengthAdjust="spacing" textLength="195" x="1042" y="262.6658">Approach 3 snowball corpus</text><path d="M1032,260.9675 C1032,270.9675 1139.5,270.9675 1139.5,270.9675 C1139.5,270.9675 1247,270.9675 1247,260.9675 " fill="none" style="stroke:#181818;stroke-width:1.0;"/><text fill="#000000" font-family="sans-serif" font-size="14" lengthAdjust="spacing" textLength="4" x="1042" y="282.9626">&#160;</text></g><!--entity st_ap4--><g id="elem_st_ap4"><polygon fill="#F1F1F1" points="1314,129.3707,1559,129.3707,1569,147.5191,1559,165.6675,1314,165.6675" style="stroke:#181818;stroke-width:0.5;"/><text fill="#000000" font-family="sans-serif" font-size="14" lengthAdjust="spacing" textLength="142" x="1324" y="152.3658">Snowball Key Papers</text><a href="https://github.com/IPBES-Data/IPBES_TCA_Ch3_clusters/raw/DMR_final/input/key_papers/c4_key-paper.csv" target="_top" title="https://github.com/IPBES-Data/IPBES_TCA_Ch3_clusters/raw/DMR_final/input/key_papers/c4_key-paper.csv" xlink:actuate="onRequest" xlink:href="https://github.com/IPBES-Data/IPBES_TCA_Ch3_clusters/raw/DMR_final/input/key_papers/c4_key-paper.csv" xlink:show="new" xlink:title="https://github.com/IPBES-Data/IPBES_TCA_Ch3_clusters/raw/DMR_final/input/key_papers/c4_key-paper.csv" xlink:type="simple"><text fill="#0000FF" font-family="sans-serif" font-size="14" lengthAdjust="spacing" text-decoration="underline" textLength="79" x="1470" y="152.3658">Approach 4</text></a></g><!--entity cp_ap4--><g id="elem_cp_ap4"><path d="M1323,235.6707 C1323,225.6707 1430.5,225.6707 1430.5,225.6707 C1430.5,225.6707 1538,225.6707 1538,235.6707 L1538,285.2644 C1538,295.2644 1430.5,295.2644 1430.5,295.2644 C1430.5,295.2644 1323,295.2644 1323,285.2644 L1323,235.6707 " fill="#F1F1F1" style="stroke:#181818;stroke-width:0.5;"/><path d="M1323,235.6707 C1323,245.6707 1430.5,245.6707 1430.5,245.6707 C1430.5,245.6707 1538,245.6707 1538,235.6707 " fill="none" style="stroke:#181818;stroke-width:0.5;"/><text fill="#000000" font-family="sans-serif" font-size="14" lengthAdjust="spacing" textLength="195" x="1333" y="262.6658">Approach 4 snowball corpus</text><path d="M1323,260.9675 C1323,270.9675 1430.5,270.9675 1430.5,270.9675 C1430.5,270.9675 1538,270.9675 1538,260.9675 " fill="none" style="stroke:#181818;stroke-width:1.0;"/><text fill="#000000" font-family="sans-serif" font-size="14" lengthAdjust="spacing" textLength="4" x="1333" y="282.9626">&#160;</text></g><!--entity st_ap5--><g id="elem_st_ap5"><polygon fill="#F1F1F1" points="1626,129.3707,1871,129.3707,1881,147.5191,1871,165.6675,1626,165.6675" style="stroke:#181818;stroke-width:0.5;"/><text fill="#000000" font-family="sans-serif" font-size="14" lengthAdjust="spacing" textLength="142" x="1636" y="152.3658">Snowball Key Papers</text><a href="https://github.com/IPBES-Data/IPBES_TCA_Ch3_clusters/raw/DMR_final/input/key_papers/c5_key-paper.csv" target="_top" title="https://github.com/IPBES-Data/IPBES_TCA_Ch3_clusters/raw/DMR_final/input/key_papers/c5_key-paper.csv" xlink:actuate="onRequest" xlink:href="https://github.com/IPBES-Data/IPBES_TCA_Ch3_clusters/raw/DMR_final/input/key_papers/c5_key-paper.csv" xlink:show="new" xlink:title="https://github.com/IPBES-Data/IPBES_TCA_Ch3_clusters/raw/DMR_final/input/key_papers/c5_key-paper.csv" xlink:type="simple"><text fill="#0000FF" font-family="sans-serif" font-size="14" lengthAdjust="spacing" text-decoration="underline" textLength="79" x="1782" y="152.3658">Approach 5</text></a></g><!--entity cp_ap5--><g id="elem_cp_ap5"><path d="M1635,235.6707 C1635,225.6707 1742.5,225.6707 1742.5,225.6707 C1742.5,225.6707 1850,225.6707 1850,235.6707 L1850,285.2644 C1850,295.2644 1742.5,295.2644 1742.5,295.2644 C1742.5,295.2644 1635,295.2644 1635,285.2644 L1635,235.6707 " fill="#F1F1F1" style="stroke:#181818;stroke-width:0.5;"/><path d="M1635,235.6707 C1635,245.6707 1742.5,245.6707 1742.5,245.6707 C1742.5,245.6707 1850,245.6707 1850,235.6707 " fill="none" style="stroke:#181818;stroke-width:0.5;"/><text fill="#000000" font-family="sans-serif" font-size="14" lengthAdjust="spacing" textLength="195" x="1645" y="262.6658">Approach 5 snowball corpus</text><path d="M1635,260.9675 C1635,270.9675 1742.5,270.9675 1742.5,270.9675 C1742.5,270.9675 1850,270.9675 1850,260.9675 " fill="none" style="stroke:#181818;stroke-width:1.0;"/><text fill="#000000" font-family="sans-serif" font-size="14" lengthAdjust="spacing" textLength="4" x="1645" y="282.9626">&#160;</text></g><!--entity st_ap6--><g id="elem_st_ap6"><polygon fill="#F1F1F1" points="1938,129.3707,2183,129.3707,2193,147.5191,2183,165.6675,1938,165.6675" style="stroke:#181818;stroke-width:0.5;"/><text fill="#000000" font-family="sans-serif" font-size="14" lengthAdjust="spacing" textLength="142" x="1948" y="152.3658">Snowball Key Papers</text><a href="https://github.com/IPBES-Data/IPBES_TCA_Ch3_clusters/raw/DMR_final/input/key_papers/c6_key-paper.csv" target="_top" title="https://github.com/IPBES-Data/IPBES_TCA_Ch3_clusters/raw/DMR_final/input/key_papers/c6_key-paper.csv" xlink:actuate="onRequest" xlink:href="https://github.com/IPBES-Data/IPBES_TCA_Ch3_clusters/raw/DMR_final/input/key_papers/c6_key-paper.csv" xlink:show="new" xlink:title="https://github.com/IPBES-Data/IPBES_TCA_Ch3_clusters/raw/DMR_final/input/key_papers/c6_key-paper.csv" xlink:type="simple"><text fill="#0000FF" font-family="sans-serif" font-size="14" lengthAdjust="spacing" text-decoration="underline" textLength="79" x="2094" y="152.3658">Approach 6</text></a></g><!--entity cp_ap6--><g id="elem_cp_ap6"><path d="M1947,235.6707 C1947,225.6707 2054.5,225.6707 2054.5,225.6707 C2054.5,225.6707 2162,225.6707 2162,235.6707 L2162,285.2644 C2162,295.2644 2054.5,295.2644 2054.5,295.2644 C2054.5,295.2644 1947,295.2644 1947,285.2644 L1947,235.6707 " fill="#F1F1F1" style="stroke:#181818;stroke-width:0.5;"/><path d="M1947,235.6707 C1947,245.6707 2054.5,245.6707 2054.5,245.6707 C2054.5,245.6707 2162,245.6707 2162,235.6707 " fill="none" style="stroke:#181818;stroke-width:0.5;"/><text fill="#000000" font-family="sans-serif" font-size="14" lengthAdjust="spacing" textLength="195" x="1957" y="262.6658">Approach 6 snowball corpus</text><path d="M1947,260.9675 C1947,270.9675 2054.5,270.9675 2054.5,270.9675 C2054.5,270.9675 2162,270.9675 2162,260.9675 " fill="none" style="stroke:#181818;stroke-width:1.0;"/><text fill="#000000" font-family="sans-serif" font-size="14" lengthAdjust="spacing" textLength="4" x="1957" y="282.9626">&#160;</text></g><!--entity openalex--><g id="elem_openalex"><path d="M1065.8931,19.4403 C1069.47,13.2572 1074.3804,13.5236 1078.6757,18.6267 C1082.9887,12.7307 1087.1197,12.652 1092.0815,17.8421 C1095.758,10.8965 1100.8697,10.7162 1106.0766,16.1056 C1108.3208,10.3415 1114.3594,7.7563 1118.8827,13.5887 C1122.3832,7.6856 1126.3314,7.3913 1130.4539,12.9612 C1134.3625,6.0548 1139.3303,6 1143.2657,12.9365 C1148.0682,7.2905 1153.3637,6.7227 1156.591,14.5003 C1161.271,10.0975 1167.1846,10.5505 1168.6251,17.8358 C1172.6244,12.4343 1179.0359,12.0653 1181.8423,19.1033 C1186.2344,14.1803 1190.3455,13.8612 1193.9687,19.9499 C1200.2805,21.5207 1202.2304,26.7584 1198.2108,31.974 C1204.2941,32.8233 1205.2763,36.35 1202.8567,41.3932 C1206.9881,46.9062 1204.2879,51.6139 1197.7907,52.0961 C1202.0068,56.9943 1198.953,61.1317 1193.5332,61.8038 C1191.2784,67.3903 1186.3222,68.8311 1182.3376,63.5929 C1178.4962,68.9078 1173.9893,69.2283 1169.6666,64.1815 C1165.7751,71.6666 1161.4774,71.2304 1156.4441,65.3075 C1153.1967,71.7733 1148.7179,72.3028 1144.3142,66.4457 C1140.3227,74.1453 1135.0421,74.1621 1130.4156,67.0412 C1125.9488,72.04 1121.6257,71.807 1118.7866,65.384 C1114.0504,73.0511 1108.3698,72.9219 1104.1752,64.8803 C1100.5923,69.4783 1096.5425,70.5122 1093.0783,64.7531 C1089.0238,69.7518 1084.0634,70.4103 1080.4851,64.2173 C1074.9286,70.1094 1070.3318,69.4851 1066.0623,62.7475 C1059.9769,60.2529 1059.4725,56.5029 1063.2356,51.5271 C1058.043,49.906 1056.1315,47.2962 1059.3488,42.1786 C1055.2993,37.0856 1057.1183,32.0567 1063.5423,30.836 C1059.3558,26.1143 1059.2487,21.9277 1065.8931,19.4403 " fill="#FFC0CB" style="stroke:#181818;stroke-width:0.5;"/><a href="https://openalex.org" target="_top" title="https://openalex.org" xlink:actuate="onRequest" xlink:href="https://openalex.org" xlink:show="new" xlink:title="https://openalex.org" xlink:type="simple"><text fill="#0000FF" font-family="sans-serif" font-size="24" lengthAdjust="spacing" text-decoration="underline" textLength="114" x="1072.5" y="48.708">OpenAlex</text></a></g><!--entity figure_general_citation_equal--><g id="elem_figure_general_citation_equal"><path d="M6,357.7607 L6,437.6513 A2.5,2.5 0 0 0 8.5,440.1513 L358.5,440.1513 A2.5,2.5 0 0 0 361,437.6513 L361,365.2607 L351,355.2607 L8.5,355.2607 A2.5,2.5 0 0 0 6,357.7607 " fill="#F08080" style="stroke:#181818;stroke-width:0.5;"/><path d="M351,355.2607 L351,362.7607 A2.5,2.5 0 0 0 353.5,365.2607 L361,365.2607 " fill="#F08080" style="stroke:#181818;stroke-width:0.5;"/><text fill="#000000" font-family="sans-serif" font-size="14" lengthAdjust="spacing" textLength="98" x="16" y="378.2558">Citation Graph</text><line style="stroke:#181818;stroke-width:1.0;" x1="7" x2="360" y1="381.5575" y2="381.5575"/><text fill="#000000" font-family="sans-serif" font-size="14" lengthAdjust="spacing" textLength="71" x="16" y="398.5526">Equal Size</text><line style="stroke:#181818;stroke-width:1.0;" x1="7" x2="360" y1="405.8544" y2="405.8544"/><text fill="#000000" font-family="sans-serif" font-size="14" font-weight="bold" lengthAdjust="spacing" textLength="70" x="16" y="422.8495">Filename</text><text fill="#000000" font-family="sans-serif" font-size="14" lengthAdjust="spacing" textLength="5" x="86" y="422.8495">:</text><a href="https://github.com/IPBES-Data/IPBES_TCA_Ch3_clusters/raw/DMR_final/figures/snowball_cited_by_count_by_year.pdf" target="_top" title="https://github.com/IPBES-Data/IPBES_TCA_Ch3_clusters/raw/DMR_final/figures/snowball_cited_by_count_by_year.pdf" xlink:actuate="onRequest" xlink:href="https://github.com/IPBES-Data/IPBES_TCA_Ch3_clusters/raw/DMR_final/figures/snowball_cited_by_count_by_year.pdf" xlink:show="new" xlink:title="https://github.com/IPBES-Data/IPBES_TCA_Ch3_clusters/raw/DMR_final/figures/snowball_cited_by_count_by_year.pdf" xlink:type="simple"><text fill="#0000FF" font-family="sans-serif" font-size="14" lengthAdjust="spacing" text-decoration="underline" textLength="256" x="95" y="422.8495">snowball_cited_by_count_by_year.pdf</text></a></g><!--entity overlap--><g id="elem_overlap"><polygon fill="#F1F1F1" points="1130,379.5607,1439,379.5607,1449,397.7091,1439,415.8575,1130,415.8575,1140,397.7091" style="stroke:#181818;stroke-width:0.5;"/><text fill="#000000" font-family="sans-serif" font-size="14" lengthAdjust="spacing" textLength="279" x="1150" y="402.5558">determine Overlap between Approaches</text></g><!--entity file_overlap--><g id="elem_file_overlap"><path d="M953.5,514.8007 L953.5,570.3944 A2.5,2.5 0 0 0 956,572.8944 L1123,572.8944 A2.5,2.5 0 0 0 1125.5,570.3944 L1125.5,522.3007 L1115.5,512.3007 L956,512.3007 A2.5,2.5 0 0 0 953.5,514.8007 " fill="#FFFF00" style="stroke:#181818;stroke-width:0.5;"/><path d="M1115.5,512.3007 L1115.5,519.8007 A2.5,2.5 0 0 0 1118,522.3007 L1125.5,522.3007 " fill="#FFFF00" style="stroke:#181818;stroke-width:0.5;"/><text fill="#000000" font-family="sans-serif" font-size="14" lengthAdjust="spacing" textLength="88" x="963.5" y="535.2958">Overlap Data</text><line style="stroke:#181818;stroke-width:1.0;" x1="954.5" x2="1124.5" y1="538.5975" y2="538.5975"/><text fill="#000000" font-family="sans-serif" font-size="14" font-weight="bold" lengthAdjust="spacing" textLength="70" x="963.5" y="555.5926">Filename</text><text fill="#000000" font-family="sans-serif" font-size="14" lengthAdjust="spacing" textLength="5" x="1033.5" y="555.5926">:</text><a href="https://doi.org/10.5281/zenodo.11352062" target="_top" title="https://doi.org/10.5281/zenodo.11352062" xlink:actuate="onRequest" xlink:href="https://doi.org/10.5281/zenodo.11352062" xlink:show="new" xlink:title="https://doi.org/10.5281/zenodo.11352062" xlink:type="simple"><text fill="#0000FF" font-family="sans-serif" font-size="14" lengthAdjust="spacing" text-decoration="underline" textLength="73" x="1042.5" y="555.5926">cluster.rds</text></a></g><!--entity figure_overlap_equal--><g id="elem_figure_overlap_equal"><path d="M1160.5,502.6507 L1160.5,582.5413 A2.5,2.5 0 0 0 1163,585.0413 L1416,585.0413 A2.5,2.5 0 0 0 1418.5,582.5413 L1418.5,510.1507 L1408.5,500.1507 L1163,500.1507 A2.5,2.5 0 0 0 1160.5,502.6507 " fill="#F08080" style="stroke:#181818;stroke-width:0.5;"/><path d="M1408.5,500.1507 L1408.5,507.6507 A2.5,2.5 0 0 0 1411,510.1507 L1418.5,510.1507 " fill="#F08080" style="stroke:#181818;stroke-width:0.5;"/><text fill="#000000" font-family="sans-serif" font-size="14" lengthAdjust="spacing" textLength="172" x="1170.5" y="523.1458">Interactive Circular Graph</text><line style="stroke:#181818;stroke-width:1.0;" x1="1161.5" x2="1417.5" y1="526.4475" y2="526.4475"/><text fill="#000000" font-family="sans-serif" font-size="14" lengthAdjust="spacing" textLength="71" x="1170.5" y="543.4426">Equal Size</text><line style="stroke:#181818;stroke-width:1.0;" x1="1161.5" x2="1417.5" y1="550.7444" y2="550.7444"/><text fill="#000000" font-family="sans-serif" font-size="14" font-weight="bold" lengthAdjust="spacing" textLength="70" x="1170.5" y="567.7395">Filename</text><text fill="#000000" font-family="sans-serif" font-size="14" lengthAdjust="spacing" textLength="5" x="1240.5" y="567.7395">:</text><a href="https://github.com/IPBES-Data/IPBES_TCA_Ch3_clusters/raw/DMR_final/figures/common_l3_equal.html" target="_top" title="https://github.com/IPBES-Data/IPBES_TCA_Ch3_clusters/raw/DMR_final/figures/common_l3_equal.html" xlink:actuate="onRequest" xlink:href="https://github.com/IPBES-Data/IPBES_TCA_Ch3_clusters/raw/DMR_final/figures/common_l3_equal.html" xlink:show="new" xlink:title="https://github.com/IPBES-Data/IPBES_TCA_Ch3_clusters/raw/DMR_final/figures/common_l3_equal.html" xlink:type="simple"><text fill="#0000FF" font-family="sans-serif" font-size="14" lengthAdjust="spacing" text-decoration="underline" textLength="159" x="1249.5" y="567.7395">common_l3_equal.html</text></a></g><!--entity figure_overlap--><g id="elem_figure_overlap"><path d="M1453.5,502.6507 L1453.5,582.5413 A2.5,2.5 0 0 0 1456,585.0413 L1709,585.0413 A2.5,2.5 0 0 0 1711.5,582.5413 L1711.5,510.1507 L1701.5,500.1507 L1456,500.1507 A2.5,2.5 0 0 0 1453.5,502.6507 " fill="#F08080" style="stroke:#181818;stroke-width:0.5;"/><path d="M1701.5,500.1507 L1701.5,507.6507 A2.5,2.5 0 0 0 1704,510.1507 L1711.5,510.1507 " fill="#F08080" style="stroke:#181818;stroke-width:0.5;"/><text fill="#000000" font-family="sans-serif" font-size="14" lengthAdjust="spacing" textLength="172" x="1463.5" y="523.1458">Interactive Circular Graph</text><line style="stroke:#181818;stroke-width:1.0;" x1="1454.5" x2="1710.5" y1="526.4475" y2="526.4475"/><text fill="#000000" font-family="sans-serif" font-size="14" lengthAdjust="spacing" textLength="220" x="1463.5" y="543.4426">Size relative to number of works</text><line style="stroke:#181818;stroke-width:1.0;" x1="1454.5" x2="1710.5" y1="550.7444" y2="550.7444"/><text fill="#000000" font-family="sans-serif" font-size="14" font-weight="bold" lengthAdjust="spacing" textLength="70" x="1463.5" y="567.7395">Filename</text><text fill="#000000" font-family="sans-serif" font-size="14" lengthAdjust="spacing" textLength="5" x="1533.5" y="567.7395">:</text><a href="https://github.com/IPBES-Data/IPBES_TCA_Ch3_clusters/raw/DMR_final/figures/common_l3.html" target="_top" title="https://github.com/IPBES-Data/IPBES_TCA_Ch3_clusters/raw/DMR_final/figures/common_l3.html" xlink:actuate="onRequest" xlink:href="https://github.com/IPBES-Data/IPBES_TCA_Ch3_clusters/raw/DMR_final/figures/common_l3.html" xlink:show="new" xlink:title="https://github.com/IPBES-Data/IPBES_TCA_Ch3_clusters/raw/DMR_final/figures/common_l3.html" xlink:type="simple"><text fill="#0000FF" font-family="sans-serif" font-size="14" lengthAdjust="spacing" text-decoration="underline" textLength="159" x="1542.5" y="567.7395">common_l3_equal.html</text></a></g><!--link openalex to st_gen--><g id="link_openalex_st_gen"><path d="M1057.24,43.1707 C892.56,47.6007 493.42,60.7007 361.5,86.3707 C313.47,95.7107 266.1933,112.5385 230.6533,126.7085 " fill="none" id="openalex-to-st_gen" style="stroke:#181818;stroke-width:1.0;"/><polygon fill="#181818" points="225.08,128.9307,234.9214,129.313,229.7245,127.0789,231.9586,121.8819,225.08,128.9307" style="stroke:#181818;stroke-width:1.0;"/></g><!--link st_gen to cp_gen--><g id="link_st_gen_cp_gen"><path d="M183.5,165.8507 C183.5,181.7007 183.5,199.5907 183.5,219.2707 " fill="none" id="st_gen-to-cp_gen" style="stroke:#181818;stroke-width:1.0;"/><polygon fill="#181818" points="183.5,225.2707,187.5,216.2707,183.5,220.2707,179.5,216.2707,183.5,225.2707" style="stroke:#181818;stroke-width:1.0;"/></g><!--link cp_gen to figure_general_citation_equal--><g id="link_cp_gen_figure_general_citation_equal"><path d="M183.5,295.5907 C183.5,313.5907 183.5,329.8207 183.5,348.8507 " fill="none" id="cp_gen-to-figure_general_citation_equal" style="stroke:#181818;stroke-width:1.0;"/><polygon fill="#181818" points="183.5,354.8507,187.5,345.8507,183.5,349.8507,179.5,345.8507,183.5,354.8507" style="stroke:#181818;stroke-width:1.0;"/></g><!--link openalex to st_ap1--><g id="link_openalex_st_ap1"><path d="M1057.16,43.0707 C966.49,46.4107 806.8,56.4107 673.5,86.3707 C628.61,96.4607 584.8147,112.788 551.2947,126.648 " fill="none" id="openalex-to-st_ap1" style="stroke:#181818;stroke-width:1.0;"/><polygon fill="#181818" points="545.75,128.9407,555.5955,129.1981,550.3706,127.0301,552.5386,121.8052,545.75,128.9407" style="stroke:#181818;stroke-width:1.0;"/></g><!--link st_ap1 to cp_ap1--><g id="link_st_ap1_cp_ap1"><path d="M507.22,165.8507 C508.79,181.7007 510.5684,199.6199 512.5184,219.2999 " fill="none" id="st_ap1-to-cp_ap1" style="stroke:#181818;stroke-width:1.0;"/><polygon fill="#181818" points="513.11,225.2707,516.2031,215.9201,512.617,220.295,508.2421,216.7089,513.11,225.2707" style="stroke:#181818;stroke-width:1.0;"/></g><!--link openalex to st_ap2--><g id="link_openalex_st_ap2"><path d="M1057.16,63.3507 C1034.19,70.4907 1008.72,78.5907 985.5,86.3707 C944.67,100.0507 904.2842,114.5378 870.7442,126.8178 " fill="none" id="openalex-to-st_ap2" style="stroke:#181818;stroke-width:1.0;"/><polygon fill="#181818" points="865.11,128.8807,874.9366,129.5425,869.8052,127.1616,872.1861,122.0302,865.11,128.8807" style="stroke:#181818;stroke-width:1.0;"/></g><!--link st_ap2 to cp_ap2--><g id="link_st_ap2_cp_ap2"><path d="M819.06,165.8507 C820.49,181.7007 822.0995,199.615 823.8795,219.295 " fill="none" id="st_ap2-to-cp_ap2" style="stroke:#181818;stroke-width:1.0;"/><polygon fill="#181818" points="824.42,225.2707,827.593,215.9469,823.9696,220.291,819.6255,216.6676,824.42,225.2707" style="stroke:#181818;stroke-width:1.0;"/></g><!--link openalex to st_ap3--><g id="link_openalex_st_ap3"><path d="M1129.5,69.8507 C1129.5,88.6907 1129.5,106.8307 1129.5,122.9307 " fill="none" id="openalex-to-st_ap3" style="stroke:#181818;stroke-width:1.0;"/><polygon fill="#181818" points="1129.5,128.9307,1133.5,119.9307,1129.5,123.9307,1125.5,119.9307,1129.5,128.9307" style="stroke:#181818;stroke-width:1.0;"/></g><!--link st_ap3 to cp_ap3--><g id="link_st_ap3_cp_ap3"><path d="M1131.06,165.8507 C1132.49,181.7007 1134.0995,199.615 1135.8795,219.295 " fill="none" id="st_ap3-to-cp_ap3" style="stroke:#181818;stroke-width:1.0;"/><polygon fill="#181818" points="1136.42,225.2707,1139.593,215.9469,1135.9696,220.291,1131.6255,216.6676,1136.42,225.2707" style="stroke:#181818;stroke-width:1.0;"/></g><!--link openalex to st_ap4--><g id="link_openalex_st_ap4"><path d="M1201.84,63.3507 C1224.81,70.4907 1250.28,78.5907 1273.5,86.3707 C1314.33,100.0507 1354.7158,114.5378 1388.2558,126.8178 " fill="none" id="openalex-to-st_ap4" style="stroke:#181818;stroke-width:1.0;"/><polygon fill="#181818" points="1393.89,128.8807,1386.8139,122.0302,1389.1948,127.1616,1384.0634,129.5425,1393.89,128.8807" style="stroke:#181818;stroke-width:1.0;"/></g><!--link st_ap4 to cp_ap4--><g id="link_st_ap4_cp_ap4"><path d="M1439.78,165.8507 C1438.21,181.7007 1436.4316,199.6199 1434.4816,219.2999 " fill="none" id="st_ap4-to-cp_ap4" style="stroke:#181818;stroke-width:1.0;"/><polygon fill="#181818" points="1433.89,225.2707,1438.7579,216.7089,1434.383,220.295,1430.7969,215.9201,1433.89,225.2707" style="stroke:#181818;stroke-width:1.0;"/></g><!--link openalex to st_ap5--><g id="link_openalex_st_ap5"><path d="M1201.84,43.0707 C1292.51,46.4107 1452.2,56.4107 1585.5,86.3707 C1630.39,96.4607 1674.1853,112.788 1707.7053,126.648 " fill="none" id="openalex-to-st_ap5" style="stroke:#181818;stroke-width:1.0;"/><polygon fill="#181818" points="1713.25,128.9407,1706.4614,121.8052,1708.6294,127.0301,1703.4045,129.1981,1713.25,128.9407" style="stroke:#181818;stroke-width:1.0;"/></g><!--link st_ap5 to cp_ap5--><g id="link_st_ap5_cp_ap5"><path d="M1751.78,165.8507 C1750.21,181.7007 1748.4316,199.6199 1746.4816,219.2999 " fill="none" id="st_ap5-to-cp_ap5" style="stroke:#181818;stroke-width:1.0;"/><polygon fill="#181818" points="1745.89,225.2707,1750.7579,216.7089,1746.383,220.295,1742.7969,215.9201,1745.89,225.2707" style="stroke:#181818;stroke-width:1.0;"/></g><!--link openalex to st_ap6--><g id="link_openalex_st_ap6"><path d="M1201.79,43.0107 C1366.55,47.0907 1765.81,59.5207 1897.5,86.3707 C1943.03,95.6507 1987.3551,112.3707 2020.8351,126.5507 " fill="none" id="openalex-to-st_ap6" style="stroke:#181818;stroke-width:1.0;"/><polygon fill="#181818" points="2026.36,128.8907,2019.6327,121.6974,2021.7559,126.9407,2016.5127,129.0639,2026.36,128.8907" style="stroke:#181818;stroke-width:1.0;"/></g><!--link st_ap6 to cp_ap6--><g id="link_st_ap6_cp_ap6"><path d="M2063.78,165.8507 C2062.21,181.7007 2060.4316,199.6199 2058.4816,219.2999 " fill="none" id="st_ap6-to-cp_ap6" style="stroke:#181818;stroke-width:1.0;"/><polygon fill="#181818" points="2057.89,225.2707,2062.7579,216.7089,2058.383,220.295,2054.7969,215.9201,2057.89,225.2707" style="stroke:#181818;stroke-width:1.0;"/></g><!--link cp_ap1 to overlap--><g id="link_cp_ap1_overlap"><path d="M598.51,295.6507 C622.35,304.4907 648.67,313.2107 673.5,319.2607 C826.01,356.4007 998.3601,375.86 1123.7801,386.15 " fill="none" id="cp_ap1-to-overlap" style="stroke:#181818;stroke-width:1.0;"/><polygon fill="#181818" points="1129.76,386.6407,1121.1172,381.9181,1124.7767,386.2318,1120.4631,389.8913,1129.76,386.6407" style="stroke:#181818;stroke-width:1.0;"/></g><!--link cp_ap2 to overlap--><g id="link_cp_ap2_overlap"><path d="M916.37,295.7607 C938.78,303.9107 962.9,312.2707 985.5,319.2607 C1061.46,342.7607 1143.8179,363.2831 1205.5879,377.7431 " fill="none" id="cp_ap2-to-overlap" style="stroke:#181818;stroke-width:1.0;"/><polygon fill="#181818" points="1211.43,379.1107,1203.5786,373.1646,1206.5616,377.971,1201.7552,380.954,1211.43,379.1107" style="stroke:#181818;stroke-width:1.0;"/></g><!--link cp_ap3 to overlap--><g id="link_cp_ap3_overlap"><path d="M1177.35,295.5907 C1206.86,322.1907 1242.1739,354.0328 1265.5639,375.1228 " fill="none" id="cp_ap3-to-overlap" style="stroke:#181818;stroke-width:1.0;"/><polygon fill="#181818" points="1270.02,379.1407,1266.0145,370.1431,1266.3066,375.7924,1260.6573,376.0845,1270.02,379.1407" style="stroke:#181818;stroke-width:1.0;"/></g><!--link cp_ap4 to overlap--><g id="link_cp_ap4_overlap"><path d="M1394.92,295.5907 C1367.18,322.1907 1334.1303,353.8976 1312.1403,374.9876 " fill="none" id="cp_ap4-to-overlap" style="stroke:#181818;stroke-width:1.0;"/><polygon fill="#181818" points="1307.81,379.1407,1317.0742,375.7979,1311.4186,375.6797,1311.5368,370.0241,1307.81,379.1407" style="stroke:#181818;stroke-width:1.0;"/></g><!--link cp_ap5 to overlap--><g id="link_cp_ap5_overlap"><path d="M1654.17,295.6807 C1631.91,303.8307 1607.95,312.2107 1585.5,319.2607 C1511.26,342.5807 1430.8819,363.1602 1370.7219,377.7102 " fill="none" id="cp_ap5-to-overlap" style="stroke:#181818;stroke-width:1.0;"/><polygon fill="#181818" points="1364.89,379.1207,1374.5781,380.8929,1369.7499,377.9453,1372.6975,373.117,1364.89,379.1207" style="stroke:#181818;stroke-width:1.0;"/></g><!--link cp_ap6 to overlap--><g id="link_cp_ap6_overlap"><path d="M1972.48,295.6307 C1948.64,304.4607 1922.33,313.1907 1897.5,319.2607 C1747.88,355.8307 1579.0487,375.295 1455.3787,385.755 " fill="none" id="cp_ap6-to-overlap" style="stroke:#181818;stroke-width:1.0;"/><polygon fill="#181818" points="1449.4,386.2607,1458.7051,389.4879,1454.3822,385.8393,1458.0309,381.5164,1449.4,386.2607" style="stroke:#181818;stroke-width:1.0;"/></g><!--link overlap to file_overlap--><g id="link_overlap_file_overlap"><path d="M1258.85,416.2307 C1217.12,440.0707 1147.0789,480.1028 1096.5089,509.0128 " fill="none" id="overlap-to-file_overlap" style="stroke:#181818;stroke-width:1.0;"/><polygon fill="#181818" points="1091.3,511.9907,1101.0986,510.9965,1095.6407,509.5091,1097.1281,504.0513,1091.3,511.9907" style="stroke:#181818;stroke-width:1.0;"/></g><!--link overlap to figure_overlap_equal--><g id="link_overlap_figure_overlap_equal"><path d="M1289.5,416.2307 C1289.5,436.8707 1289.5,465.8707 1289.5,493.6507 " fill="none" id="overlap-to-figure_overlap_equal" style="stroke:#181818;stroke-width:1.0;"/><polygon fill="#181818" points="1289.5,499.6507,1293.5,490.6507,1289.5,494.6507,1285.5,490.6507,1289.5,499.6507" style="stroke:#181818;stroke-width:1.0;"/></g><!--link overlap to figure_overlap--><g id="link_overlap_figure_overlap"><path d="M1325.43,416.2307 C1367.76,436.8707 1434.137,469.2409 1491.107,497.0209 " fill="none" id="overlap-to-figure_overlap" style="stroke:#181818;stroke-width:1.0;"/><polygon fill="#181818" points="1496.5,499.6507,1490.1637,492.1107,1492.0058,497.4592,1486.6573,499.3013,1496.5,499.6507" style="stroke:#181818;stroke-width:1.0;"/></g><!--SRC=[nPVRRjiu48RlzHI4Sr4WWALQ9nJ1ee3NIOEYwG5DRnPD8T3Is2OYaIf9nNMBldj9IZAbTLXdWKMj6uiZpa_EDoDwb9UiAT3aBq6-mqKOl_pyUIDbBIw2WDL0SGdVVCRNwBqQpDNWovS9mWBrpz1PJUYzvt789QRh4j3a6YXmNA9RohPBN9OJzCD3wiAv98oYIMz7Rs27Fk0Qk41sqJMHcsRfvwmANd_u- -fsUeabRc-pJujvjjX4MLusGYgtWEDjSFdsOxOYQZC1eNKZWtlOrKRKpyK36eswlGkPhO6QFUt3c4vV3ks5MdI9nI2QULrpXlCDAFy-W9pnkX5tTAgkEsgqytglqSePvSxwq_DMH2DQ48aDZ6kEwuqHkADNNnjDJQMXCvoVlrApAQxW_FpY_q6q8kk6WmZw4BASI2YovIxBMKEblja1vdvThD0JvdH0MrKTeaQbvvleCZ0HdTsGzKOkc7hajI0CazywUTwpVrsZ4kkJWMP_lhYojfw2V9QfqTICJAdPJTawm_NiqJhhxRREhFUn-kfzMvc-lhJrfpPxw55IuGb9XIvIuP1Kw20LkaY5nqc5bbHeIONgJNoSKdH2If6BKZIa53aeHIvAqN5AaQKKMKgHar9yGagnYr8yf1GxACKkIl5nIh6b55jAiPDISa9AYOjICgIKE2WbBah9SKg9fPHOIecJKdf2IgcBKZgab3eefIvAwN5AgQMKMagfeQHKSX02JGfGKLI40dh_0Bp4DLg2t8Bw_xJDIDkCjO-zzc_0w8rCuQ4fEZJ5XwRaq9IEJ5q_q-zF9-D8yr8mell9OFRSJy8Ni-0xK5OmVpQBal1v6g8kUJulnBwxA27h5aHdEoXBjlNwSTj9s0dzZbvJ9Q9BwW7GWl2yAJ4_MRUbV2lLsPHHszpu6rdfqZWqZlkfBgH7sgXnz8UJdqn1nuyubDXCaGpHfbe2Hso5jepVYp_8vZzIUI8FJtMIwERg-khTfKTXM-Cr38wX6r3jPz4TG7dx8NJB6fu38XJ9ZQAcZHs5wVuZID_xlZ_fldx6vy0bszAIuG8AjB2llu78U8MbHbXZ_hK1QRm4oCc-hfrI9fKL50HBUBhkw6ITjxyctKfHPJiVwapHhMhhrVdrIIsaZMZ1cH24hhjv8FguZUp-d9ghVEu44NlbxibU5xv9NOLTSOrLX5GPNAjOtpKLS98h4T6KKhHFspB-Q4n8u0SbhYf15sCdhczH6_z-EKMlRFVQ5Pc-hN0zNdWaxJousYp_OvCpSdjbz7_ZEAZH0-Utk3xgkSFgg_4N]--></g></svg>